<?xml version="1.0" encoding="UTF-8" standalone="no"?>
<svg
   id="svg"
   version="1.1"
   width="400"
   height="400"
   viewBox="0, 0, 400,400"
   sodipodi:docname="image2vector.svg"
   inkscape:version="1.1.2 (b8e25be833, 2022-02-05)"
   xmlns:inkscape="http://www.inkscape.org/namespaces/inkscape"
   xmlns:sodipodi="http://sodipodi.sourceforge.net/DTD/sodipodi-0.dtd"
   xmlns="http://www.w3.org/2000/svg"
   xmlns:svg="http://www.w3.org/2000/svg">
  <defs
     id="defs35" />
  <sodipodi:namedview
     id="namedview33"
     pagecolor="#505050"
     bordercolor="#ffffff"
     borderopacity="1"
     inkscape:pageshadow="0"
     inkscape:pageopacity="0"
     inkscape:pagecheckerboard="1"
     showgrid="false"
     inkscape:zoom="2.12"
     inkscape:cx="200"
     inkscape:cy="200"
     inkscape:window-width="1920"
     inkscape:window-height="1060"
     inkscape:window-x="-4"
     inkscape:window-y="-4"
     inkscape:window-maximized="1"
     inkscape:current-layer="svgg" />
  <g
     id="svgg"
     style="opacity:1">
    <path
       id="path0"
       d="m 37.092,103.653 c -2.722,0.776 -2.683,1.54 0.278,5.469 8.178,10.851 9.057,14.435 10.026,40.878 0.132,3.63 0.409,8.76 0.614,11.4 0.205,2.64 0.645,10.83 0.979,18.2 0.334,7.37 0.789,16.01 1.012,19.2 1.1,15.756 1.645,22.967 2.027,26.8 0.874,8.763 1.645,15.457 1.958,17 0.179,0.88 0.322,1.87 0.318,2.2 -0.026,2.072 2.306,11.85 3.123,13.098 1.693,2.583 3.355,-0.691 4.214,-8.298 0.261,-2.31 0.541,-4.74 0.623,-5.4 0.082,-0.66 0.323,-4.62 0.536,-8.8 1.388,-27.267 1.457,-27.616 6.359,-32.385 2.747,-2.672 2.716,-3.659 -0.228,-7.302 -1.969,-2.437 -3.319,-5.661 -3.59,-8.574 -0.239,-2.58 0.567,-36.503 0.905,-38.078 0.102,-0.474 0.432,-7.881 0.735,-16.461 0.302,-8.58 0.723,-16.151 0.934,-16.823 1.442,-4.584 4.195,-6.793 9.885,-7.931 3.767,-0.754 6.864,-1.577 7.201,-1.914 1.476,-1.476 -43.262,-3.604 -47.909,-2.279 m 75.108,-0.015 c -6.583,0.603 -8.927,1.829 -5.519,2.886 18.6,5.772 28.276,12.009 35.552,22.916 10.667,15.992 11.868,35.473 3.33,54.041 -2.868,6.237 -0.695,7.089 6.179,2.424 20.785,-14.108 25.954,-51.435 9.571,-69.129 -9.74,-10.521 -27.071,-15.157 -49.113,-13.138 m 2.6,100.555 c -0.33,0.074 -1.95,0.339 -3.6,0.589 -12.93,1.958 -13.478,0.412 10.14,28.583 24.94,29.747 35.824,36.131 23.247,13.635 -0.615,-1.1 -1.422,-2.45 -1.793,-3 -0.371,-0.55 -1.729,-2.71 -3.019,-4.8 -1.289,-2.09 -4.469,-7.04 -7.067,-11 -2.605,-3.971 -6.409,-10.518 -8.483,-14.6 -4.534,-8.923 -5.827,-10.214 -9.425,-9.407"
       stroke="none"
       fill="#b07e2d"
       fill-rule="evenodd" />
    <path
       id="path1"
       d="m 228.641,101.652 c -8.434,1.194 -10.625,7.323 -10.172,28.461 0.222,10.375 1.115,10.998 4.757,3.313 11.303,-23.852 10.221,-23.226 40.174,-23.226 23.927,0 22.965,-0.268 26.546,7.4 3.528,7.554 3.911,9.672 4.447,24.61 0.477,13.288 2.473,43.289 3.844,57.79 0.322,3.41 0.762,8.09 0.977,10.4 0.805,8.659 1.814,15.994 2.779,20.2 0.202,0.88 0.661,3.005 1.02,4.723 0.694,3.325 2.341,5.877 3.794,5.877 0.794,0 2.391,-4.189 2.395,-6.284 0.002,-0.614 0.274,-2.916 0.606,-5.116 0.332,-2.2 0.873,-7.6 1.202,-12 0.33,-4.4 0.864,-11.24 1.187,-15.2 0.323,-3.96 0.778,-11.52 1.01,-16.8 0.232,-5.28 0.602,-11.04 0.823,-12.8 0.221,-1.76 0.659,-10.76 0.974,-20 1.352,-39.673 1.426,-40.171 6.396,-42.765 2.284,-1.192 35.009,-1.264 40.6,-0.089 10.219,2.147 16,8.687 21.974,24.854 2.932,7.935 2.868,7.789 3.932,9.053 1.419,1.687 3.097,1.587 3.967,-0.236 1.37,-2.875 -0.16,-31.746 -1.934,-36.488 -2.272,-6.074 -5.602,-6.662 -29.739,-5.254 -10.431,0.609 -80.984,0.596 -102,-0.019 -24.88,-0.727 -27.069,-0.757 -29.559,-0.404"
       stroke="none"
       fill="#7f2abd"
       fill-rule="evenodd" />
    <path
       id="path3"
       d="m 223.2,95.446 c -8.51,1.692 -8.998,3.232 -11.633,36.754 -1.294,16.472 -0.311,19.769 5.907,19.793 4.931,0.02 6.364,-1.954 9.88,-13.605 7.244,-24.009 7.479,-24.16 37.353,-23.919 21.127,0.17 20.622,-0.086 22.735,11.531 1.161,6.38 2.801,141.988 1.846,152.576 -0.851,9.428 -3.504,12.605 -12.888,15.43 -6.329,1.905 -7.924,3.404 -5.136,4.827 9.323,4.756 72.401,4.749 73.646,-0.009 0.457,-1.749 -1.236,-2.806 -8.369,-5.227 -10.012,-3.399 -15.394,-7.549 -17.128,-13.208 -1.395,-4.555 -1.728,-90.63 -0.421,-108.989 0.282,-3.96 0.539,-12.69 0.571,-19.4 0.145,-30.018 0.725,-35.457 3.955,-37.063 1.915,-0.953 33.41,-1.124 38.271,-0.208 8.934,1.683 12.841,7.046 18.005,24.715 3.249,11.116 5.662,13.807 11.879,13.243 5.575,-0.506 5.919,-2.056 4.805,-21.687 -1.448,-25.533 -2.819,-31.45 -7.992,-34.491 L 386.6,95.4 h -12 c -6.6,0 -24.87,0.25 -40.6,0.556 -23.102,0.449 -32.829,0.466 -50.6,0.085 -25.823,-0.554 -58.772,-0.879 -60.2,-0.595 m 50.208,5.364 c 37.39,0.585 77.194,0.345 102.592,-0.619 14.23,-0.54 15.817,1.807 17.189,25.409 0.237,4.07 0.616,9.747 0.842,12.616 0.605,7.683 0,9.659 -3.076,10.036 -3.499,0.428 -4.866,-1.558 -8.126,-11.803 -7.56,-23.757 -11.484,-26.035 -44.829,-26.031 -22.574,0.003 -20.743,-3.588 -21.53,42.213 -0.185,10.797 -0.439,19.797 -0.564,20 -0.36,0.584 -0.849,46.04 -0.83,77.169 0.021,35.324 -0.247,33.526 6.128,41.061 5.007,5.918 3.984,6.999 -7.204,7.607 -17.517,0.951 -23.416,-0.886 -21.234,-6.613 2.28,-5.984 2.529,-17.838 1.232,-58.622 -0.221,-6.948 -0.464,-24.963 -0.541,-40.033 -0.177,-34.792 -0.874,-61.832 -1.707,-66.186 -1.505,-7.872 -4.122,-13.052 -7.55,-14.95 -1.496,-0.828 -36.461,-1.231 -41,-0.472 -8.388,1.402 -12.634,6.578 -18.215,22.208 -1.257,3.52 -2.493,6.963 -2.747,7.651 -2.199,5.964 -5.84,5.997 -6.175,0.057 -0.24,-4.24 1.165,-26.143 1.976,-30.822 1.094,-6.31 4.136,-9.561 9.761,-10.433 0.66,-0.102 5.7,-0.105 11.2,-0.006 5.5,0.099 20.984,0.353 34.408,0.563"
       stroke="none"
       fill="#3e185f"
       fill-rule="evenodd" />
    <path
       id="path4"
       d="m 18.8,96.65 c -9.521,1.935 -7.428,6.49 5.1,11.097 8.893,3.271 11.866,5.461 14.1,10.389 2.435,5.374 2.767,7.873 3.199,24.064 0.199,7.48 0.544,19.72 0.766,27.2 0.222,7.48 0.596,22.06 0.831,32.4 0.235,10.34 0.6,24.83 0.811,32.2 0.61,21.363 0.616,46.965 0.012,49.8 -0.747,3.498 -2.14,5.947 -5.256,9.239 -4.14,4.374 -3.587,5.146 5.037,7.035 3.322,0.728 32.55,0.746 36,0.023 7.88,-1.653 7.803,-2.385 -0.917,-8.756 -9.573,-6.994 -9.327,-5.89 -9.5,-42.541 -0.208,-44.143 -0.988,-41.948 14.617,-41.142 9.773,0.505 10.48,1.138 30.117,27.01 3.82,5.033 8.263,10.857 9.872,12.941 9.725,12.598 18.328,24.452 28.729,39.591 10.183,14.823 9.073,14.29 28.368,13.61 25.98,-0.916 28.61,-2.373 15.824,-8.763 -13.458,-6.726 -11.38,-4.35 -53.56,-61.247 -18.615,-25.109 -18.903,-26.382 -6.949,-30.719 19.673,-7.137 32.337,-20.486 37.001,-39.003 7.005,-27.812 -3.807,-51.58 -27.303,-60.019 C 134.638,97.085 134.076,97.047 86.8,97.017 64.25,97.003 39.95,96.869 32.8,96.719 25.65,96.569 19.35,96.538 18.8,96.65 m 73.857,3.017 c 42.166,-0.173 46.994,0.332 58.543,6.122 37.78,18.942 24.112,85.767 -18.707,91.464 -5.379,0.715 -5.397,0.444 -0.288,-4.508 11.181,-10.837 15.177,-20.035 15.183,-34.945 0.014,-33.729 -23.021,-50.981 -62.749,-46.996 -15.222,1.526 -14.897,1.089 -15.444,20.796 -0.198,7.15 -0.541,15.61 -0.762,18.8 -0.221,3.19 -0.454,13 -0.518,21.8 l -0.115,16 1.151,2.345 c 0.991,2.017 1.771,2.827 5.586,5.8 8.006,6.239 8.043,5.979 -1.179,8.418 -5.658,1.497 -6.465,3.902 -7.194,21.437 -0.311,7.48 -0.857,19.54 -1.212,26.8 -0.784,16.004 -0.634,29.982 0.348,32.4 0.358,0.88 1.085,2.639 1.618,3.91 1.882,4.492 0.798,5.29 -7.189,5.29 -7.666,0 -8.558,-0.877 -7.673,-7.549 0.359,-2.706 0.361,-4.557 0.007,-7.8 -0.256,-2.338 -0.649,-7.761 -0.875,-12.051 -0.226,-4.29 -0.684,-10.5 -1.019,-13.8 -1.685,-16.635 -2.42,-25.78 -3.15,-39.2 -0.335,-6.16 -0.705,-12.37 -0.823,-13.8 -0.118,-1.43 -0.487,-9.8 -0.819,-18.6 -0.332,-8.8 -0.866,-20.95 -1.187,-27 -0.322,-6.05 -0.589,-13.25 -0.594,-16 -0.037,-18.146 -3.802,-25.993 -15.27,-31.821 -6.281,-3.192 -7.526,-4.045 -7.526,-5.158 0,-2.355 2.741,-2.634 22.6,-2.302 9.24,0.155 31.406,0.221 49.257,0.148 m 15.391,13.127 c 23.895,4.168 36.454,18.751 36.52,42.406 0.079,28.024 -16.543,42 -49.953,42 -11.364,0 -18.356,-2.026 -22.499,-6.52 -2.916,-3.164 -2.934,-3.975 -1.308,-58.269 0.566,-18.902 0.172,-18.313 13.132,-19.602 10.065,-1 18.428,-1.006 24.108,-0.015 M 125.6,198.55 c 0,0.082 -0.27,0.915 -0.6,1.85 -2.105,5.967 0.54,11.786 14.092,31 1.242,1.76 6.664,9.77 12.05,17.8 5.386,8.03 12.47,18.431 15.743,23.113 3.273,4.682 6.052,8.779 6.177,9.105 0.125,0.325 1.919,2.705 3.986,5.287 5.403,6.75 4.699,8.037 -4.422,8.077 -7.013,0.031 -6.53,0.489 -24.433,-23.16 -4.876,-6.44 -8.242,-10.593 -19.822,-24.452 -4.306,-5.154 -11.223,-13.6 -15.372,-18.77 -4.149,-5.17 -9.19,-11.29 -11.202,-13.6 -4.875,-5.596 -8.597,-10.338 -8.597,-10.952 0,-1.12 3.025,-1.92 10.182,-2.692 3.97,-0.428 9.288,-1.203 11.818,-1.721 3.934,-0.807 10.4,-1.357 10.4,-0.885"
       stroke="none"
       fill="#593d14"
       fill-rule="evenodd" />
    <path
       id="path5"
       d="M 12.698,92.405 C 8.062,93.587 6,95.734 6,99.38 c 0,4.445 4.13,7.86 12.607,10.424 17.417,5.269 17.937,6.052 18.601,27.996 1.276,42.131 2.048,137.611 1.147,141.86 -1.286,6.068 -4.111,8.222 -13.882,10.581 -13.604,3.285 -16.814,5.766 -13.277,10.263 2.662,3.384 19.221,4.523 61.004,4.195 25.728,-0.202 26.553,-0.278 28.682,-2.661 4.312,-4.825 0.298,-9.117 -11.082,-11.85 -7.687,-1.847 -13.472,-5.262 -15.465,-9.13 -1.154,-2.241 -1.511,-8.277 -1.549,-26.258 -0.018,-8.47 -0.165,-17.83 -0.327,-20.8 -0.162,-2.97 -0.189,-8.55 -0.059,-12.4 0.349,-10.384 0.631,-10.696 9.246,-10.228 10.595,0.576 10.039,0.093 28.355,24.622 5.829,7.807 12.176,16.267 14.104,18.8 5.813,7.639 16.525,22.743 24.458,34.485 11.718,17.347 8.263,16.051 41.437,15.547 27.855,-0.422 28.717,-0.57 29.853,-5.093 1.099,-4.382 -2.041,-6.885 -12.53,-9.983 -18.664,-5.514 -20.487,-7.035 -40.96,-34.176 C 158.989,245.798 149.627,233.39 145.559,228 129.298,206.454 129.36,206.695 139.031,202.815 169.85,190.451 185.27,157.816 175.137,126.4 167.423,102.485 146.039,91.769 107.6,92.554 75.558,93.208 64.305,93.273 55.134,92.858 41.238,92.227 14.514,91.943 12.698,92.405 m 208.155,0.816 c -5.779,1.168 -7.754,3.891 -9.024,12.446 -0.584,3.93 -0.834,6.674 -1.838,20.133 -0.23,3.08 -0.61,7.49 -0.845,9.8 -1.314,12.945 0.692,17.897 7.423,18.326 6.126,0.39 8.604,-2.157 11.406,-11.726 5.105,-17.429 7.29,-22.001 11.656,-24.384 l 2.169,-1.184 16.6,-0.35 c 18.111,-0.382 21.599,-0.24 23.568,0.957 2.932,1.783 3.851,7.014 4.212,23.961 0.138,6.49 0.42,16.03 0.627,21.2 0.206,5.17 0.473,19.57 0.592,32 0.119,12.43 0.37,29.35 0.558,37.6 0.578,25.391 0.359,48.98 -0.48,51.482 -1.528,4.562 -4.971,7.227 -11.477,8.887 -9.822,2.507 -12.61,3.977 -11.756,6.202 1.112,2.898 18.08,4.431 48.956,4.424 29.905,-0.007 34,-0.576 34,-4.727 0,-2.358 -1.968,-3.487 -10.36,-5.942 -8.914,-2.607 -14.673,-6.65 -16.415,-11.526 -0.707,-1.976 -1.34,-18.508 -1.097,-28.6 0.112,-4.62 0.041,-11.1 -0.157,-14.4 -0.37,-6.15 0.106,-37.797 0.851,-56.6 0.506,-12.772 1.094,-31.318 1.516,-47.809 0.374,-14.626 0.539,-15.552 3.016,-16.909 1.698,-0.929 32.122,-1.027 37.181,-0.119 7.996,1.435 11.232,6.19 16.435,24.155 3.151,10.879 6.116,14.293 12.401,14.278 6.015,-0.014 8.541,-4.047 8.102,-12.932 -2.398,-48.549 -2.807,-49.362 -24.64,-48.953 -62.435,1.17 -66.632,1.2 -95.433,0.672 -37.443,-0.686 -55.581,-0.799 -57.747,-0.362 m 62.547,2.82 c 17.771,0.381 27.498,0.364 50.6,-0.085 15.73,-0.306 34,-0.556 40.6,-0.556 h 12 l 1.886,1.109 c 5.173,3.041 6.544,8.958 7.992,34.491 1.114,19.631 0.77,21.181 -4.805,21.687 -6.217,0.564 -8.63,-2.127 -11.879,-13.243 -5.164,-17.669 -9.071,-23.032 -18.005,-24.715 -4.861,-0.916 -36.356,-0.745 -38.271,0.208 -3.23,1.606 -3.81,7.045 -3.955,37.063 -0.032,6.71 -0.289,15.44 -0.571,19.4 -1.307,18.359 -0.974,104.434 0.421,108.989 1.734,5.659 7.116,9.809 17.128,13.208 17.901,6.077 7.802,9.105 -28.988,8.693 -33.441,-0.375 -46.177,-3.762 -31.153,-8.284 9.384,-2.825 12.037,-6.002 12.888,-15.43 0.955,-10.588 -0.685,-146.196 -1.846,-152.576 -2.113,-11.617 -1.608,-11.361 -22.735,-11.531 -29.874,-0.241 -30.109,-0.09 -37.353,23.919 -3.516,11.651 -4.949,13.625 -9.88,13.605 -6.218,-0.024 -7.201,-3.321 -5.907,-19.793 2.635,-33.522 3.123,-35.062 11.633,-36.754 1.428,-0.284 34.377,0.041 60.2,0.595 M 86.8,97.017 c 47.276,0.03 47.838,0.068 58.899,4.042 23.496,8.439 34.308,32.207 27.303,60.019 -4.664,18.517 -17.328,31.866 -37.001,39.003 -11.954,4.337 -11.666,5.61 6.949,30.719 42.18,56.897 40.102,54.521 53.56,61.247 12.786,6.39 10.156,7.847 -15.824,8.763 -19.295,0.68 -18.185,1.213 -28.368,-13.61 -10.401,-15.139 -19.004,-26.993 -28.729,-39.591 -1.609,-2.084 -6.052,-7.908 -9.872,-12.941 C 94.08,208.796 93.373,208.163 83.6,207.658 67.995,206.852 68.775,204.657 68.983,248.8 c 0.173,36.651 -0.073,35.547 9.5,42.541 8.72,6.371 8.797,7.103 0.917,8.756 -3.45,0.723 -32.678,0.705 -36,-0.023 -8.624,-1.889 -9.177,-2.661 -5.037,-7.035 3.116,-3.292 4.509,-5.741 5.256,-9.239 0.604,-2.835 0.598,-28.437 -0.012,-49.8 -0.211,-7.37 -0.576,-21.86 -0.811,-32.2 -0.235,-10.34 -0.609,-24.92 -0.831,-32.4 -0.222,-7.48 -0.567,-19.72 -0.766,-27.2 C 40.518,116.646 38.801,113.227 23.9,107.747 11.372,103.14 9.279,98.585 18.8,96.65 c 0.55,-0.112 6.85,-0.081 14,0.069 7.15,0.15 31.45,0.284 54,0.298 m -2.86,15.792 c -12.96,1.289 -12.566,0.7 -13.132,19.602 -1.626,54.294 -1.608,55.105 1.308,58.269 8.585,9.313 40.148,8.816 55.699,-0.876 20.304,-12.656 23.092,-47.445 5.226,-65.233 -10.672,-10.626 -25.296,-14.129 -49.101,-11.762 m 23.508,2.999 c 12.692,2.174 20.39,6.297 26.124,13.992 11.633,15.612 9.076,41.574 -5.2,52.79 -14.948,11.743 -52.187,13.641 -55.133,2.81 -0.659,-2.426 -0.545,-29.201 0.164,-38.4 0.322,-4.18 0.592,-11.74 0.6,-16.8 0.02,-12.893 0.12,-13.083 7.267,-13.826 2.272,-0.236 5.3,-0.573 6.73,-0.75 4.649,-0.575 15.621,-0.471 19.448,0.184"
       stroke="none"
       fill="#30200b"
       fill-rule="evenodd" />
    <path
       id="path6"
       d="m 24.58,99.566 c -6.218,1.008 -5.307,2.812 3.746,7.413 11.468,5.828 15.233,13.675 15.27,31.821 0.005,2.75 0.272,9.95 0.594,16 0.321,6.05 0.855,18.2 1.187,27 0.332,8.8 0.701,17.17 0.819,18.6 0.118,1.43 0.488,7.64 0.823,13.8 0.73,13.42 1.465,22.565 3.15,39.2 0.335,3.3 0.793,9.51 1.019,13.8 0.226,4.29 0.619,9.713 0.875,12.051 0.354,3.243 0.352,5.094 -0.007,7.8 -0.885,6.672 0.007,7.549 7.673,7.549 7.987,0 9.071,-0.798 7.189,-5.29 -0.533,-1.271 -1.26,-3.03 -1.618,-3.91 -0.982,-2.418 -1.132,-16.396 -0.348,-32.4 0.355,-7.26 0.901,-19.32 1.212,-26.8 0.729,-17.535 1.536,-19.94 7.194,-21.437 9.222,-2.439 9.185,-2.179 1.179,-8.418 -3.815,-2.973 -4.595,-3.783 -5.586,-5.8 L 67.8,188.2 l 0.115,-16 c 0.064,-8.8 0.297,-18.61 0.518,-21.8 0.221,-3.19 0.564,-11.65 0.762,-18.8 0.547,-19.707 0.222,-19.27 15.444,-20.796 39.728,-3.985 62.763,13.267 62.749,46.996 -0.006,14.91 -4.002,24.108 -15.183,34.945 -5.109,4.952 -5.091,5.223 0.288,4.508 42.819,-5.697 56.487,-72.522 18.707,-91.464 C 139.651,99.999 134.823,99.494 92.657,99.667 74.806,99.74 52.64,99.674 43.4,99.519 34.16,99.365 25.691,99.386 24.58,99.566 M 73,104.17 c 7.33,0.58 12.433,1.33 12.001,1.762 -0.337,0.337 -3.434,1.16 -7.201,1.914 -5.69,1.138 -8.443,3.347 -9.885,7.931 -0.211,0.672 -0.632,8.243 -0.934,16.823 -0.303,8.58 -0.633,15.987 -0.735,16.461 -0.338,1.575 -1.144,35.498 -0.905,38.078 0.271,2.913 1.621,6.137 3.59,8.574 2.944,3.643 2.975,4.63 0.228,7.302 -4.902,4.769 -4.971,5.118 -6.359,32.385 -0.213,4.18 -0.454,8.14 -0.536,8.8 -0.082,0.66 -0.362,3.09 -0.623,5.4 -0.859,7.607 -2.521,10.881 -4.214,8.298 -0.817,-1.248 -3.149,-11.026 -3.123,-13.098 0.004,-0.33 -0.139,-1.32 -0.318,-2.2 -0.313,-1.543 -1.084,-8.237 -1.958,-17 -0.382,-3.833 -0.927,-11.044 -2.027,-26.8 -0.223,-3.19 -0.678,-11.83 -1.012,-19.2 -0.334,-7.37 -0.774,-15.56 -0.979,-18.2 -0.205,-2.64 -0.482,-7.77 -0.614,-11.4 -0.969,-26.443 -1.848,-30.027 -10.026,-40.878 -2.961,-3.929 -3,-4.693 -0.278,-5.469 2.039,-0.581 26.486,-0.229 35.908,0.517 m 59.002,-0.384 c 13.287,1.558 22.513,5.647 29.311,12.99 16.383,17.694 11.214,55.021 -9.571,69.129 -6.874,4.665 -9.047,3.813 -6.179,-2.424 8.538,-18.568 7.337,-38.049 -3.33,-54.041 -7.276,-10.907 -16.952,-17.144 -35.552,-22.916 -7.203,-2.235 11.95,-4.306 25.321,-2.738 M 115.2,199.435 c -2.53,0.518 -7.848,1.293 -11.818,1.721 -7.157,0.772 -10.182,1.572 -10.182,2.692 0,0.614 3.722,5.356 8.597,10.952 2.012,2.31 7.053,8.43 11.202,13.6 4.149,5.17 11.066,13.616 15.372,18.77 11.58,13.859 14.946,18.012 19.822,24.452 17.903,23.649 17.42,23.191 24.433,23.16 9.121,-0.04 9.825,-1.327 4.422,-8.077 -2.067,-2.582 -3.861,-4.962 -3.986,-5.287 -0.125,-0.326 -2.904,-4.423 -6.177,-9.105 -3.273,-4.682 -10.357,-15.083 -15.743,-23.113 -5.386,-8.03 -10.808,-16.04 -12.05,-17.8 -13.552,-19.214 -16.197,-25.033 -14.092,-31 0.33,-0.935 0.6,-1.768 0.6,-1.85 0,-0.472 -6.466,0.078 -10.4,0.885 m 4.328,5.885 c 0.515,0.484 2.629,4.21 4.697,8.28 2.074,4.082 5.878,10.629 8.483,14.6 2.598,3.96 5.778,8.91 7.067,11 1.29,2.09 2.648,4.25 3.019,4.8 5.275,7.82 8.348,16.009 6.126,16.325 -2.74,0.39 -13.326,-9.958 -27.58,-26.96 -23.618,-28.171 -23.07,-26.625 -10.14,-28.583 1.65,-0.25 3.27,-0.515 3.6,-0.589 1.335,-0.299 3.847,0.299 4.728,1.127"
       stroke="none"
       fill="#745c32"
       fill-rule="evenodd" />
    <path
       id="path7"
       d="m 227.8,100.253 c -5.625,0.872 -8.667,4.123 -9.761,10.433 -0.811,4.679 -2.216,26.582 -1.976,30.822 0.335,5.94 3.976,5.907 6.175,-0.057 0.254,-0.688 1.49,-4.131 2.747,-7.651 5.581,-15.63 9.827,-20.806 18.215,-22.208 4.539,-0.759 39.504,-0.356 41,0.472 3.428,1.898 6.045,7.078 7.55,14.95 0.833,4.354 1.53,31.394 1.707,66.186 0.077,15.07 0.32,33.085 0.541,40.033 1.297,40.784 1.048,52.638 -1.232,58.622 -2.182,5.727 3.717,7.564 21.234,6.613 11.188,-0.608 12.211,-1.689 7.204,-7.607 -6.375,-7.535 -6.107,-5.737 -6.128,-41.061 -0.019,-31.129 0.47,-76.585 0.83,-77.169 0.125,-0.203 0.379,-9.203 0.564,-20 0.787,-45.801 -1.044,-42.21 21.53,-42.213 33.345,-0.004 37.269,2.274 44.829,26.031 3.26,10.245 4.627,12.231 8.126,11.803 3.076,-0.377 3.681,-2.353 3.076,-10.036 -0.226,-2.869 -0.605,-8.546 -0.842,-12.616 -1.372,-23.602 -2.959,-25.949 -17.189,-25.409 -32.344,1.228 -71.136,1.244 -137,0.056 -5.5,-0.099 -10.54,-0.096 -11.2,0.006 m 30.4,1.803 c 21.016,0.615 91.569,0.628 102,0.019 24.137,-1.408 27.467,-0.82 29.739,5.254 1.774,4.742 3.304,33.613 1.934,36.488 -0.87,1.823 -2.548,1.923 -3.967,0.236 -1.064,-1.264 -1,-1.118 -3.932,-9.053 C 378,118.833 372.219,112.293 362,110.146 c -5.591,-1.175 -38.316,-1.103 -40.6,0.089 -4.97,2.594 -5.044,3.092 -6.396,42.765 -0.315,9.24 -0.753,18.24 -0.974,20 -0.221,1.76 -0.591,7.52 -0.823,12.8 -0.232,5.28 -0.687,12.84 -1.01,16.8 -0.323,3.96 -0.857,10.8 -1.187,15.2 -0.329,4.4 -0.87,9.8 -1.202,12 -0.332,2.2 -0.604,4.502 -0.606,5.116 -0.004,2.095 -1.601,6.284 -2.395,6.284 -1.453,0 -3.1,-2.552 -3.794,-5.877 -0.359,-1.718 -0.818,-3.843 -1.02,-4.723 -0.965,-4.206 -1.974,-11.541 -2.779,-20.2 -0.215,-2.31 -0.655,-6.99 -0.977,-10.4 -1.371,-14.501 -3.367,-44.502 -3.844,-57.79 -0.536,-14.938 -0.919,-17.056 -4.447,-24.61 -3.581,-7.668 -2.619,-7.4 -26.546,-7.4 -27.53,0 -29.496,0.787 -35.981,14.4 -1.152,2.42 -3.039,6.392 -4.193,8.826 -3.642,7.685 -4.535,7.062 -4.757,-3.313 -0.374,-17.468 1.293,-24.971 6.061,-27.279 3.433,-1.662 3.424,-1.662 33.67,-0.778"
       stroke="none"
       fill="#440484"
       fill-rule="evenodd" />
  </g>
</svg>
